<?xml version="1.0" standalone="no"?>
<!DOCTYPE svg PUBLIC "-//W3C//DTD SVG 20010904//EN"
 "http://www.w3.org/TR/2001/REC-SVG-20010904/DTD/svg10.dtd">
<svg version="1.0" xmlns="http://www.w3.org/2000/svg"
 width="180.000000pt" height="180.000000pt" viewBox="0 0 180.000000 180.000000"
 preserveAspectRatio="xMidYMid meet">
<metadata>
Created by potrace 1.14, written by Peter Selinger 2001-2017
</metadata>
<g transform="translate(0.000000,180.000000) scale(0.100000,-0.100000)"
fill="#000000" stroke="none">
<path d="M719 1784 c-6 -7 -19 -11 -30 -9 -10 2 -19 0 -19 -5 0 -4 -9 -6 -20
-3 -12 3 -20 0 -20 -6 0 -7 -6 -11 -12 -10 -26 3 -39 -1 -33 -10 3 -6 -4 -8
-15 -6 -11 2 -20 0 -20 -6 0 -5 -3 -8 -7 -7 -14 4 -53 -13 -53 -23 0 -5 -9 -9
-21 -9 -11 0 -18 -4 -14 -9 3 -6 -4 -8 -15 -6 -18 3 -25 -5 -21 -27 0 -4 -6
-5 -14 -2 -8 4 -15 1 -15 -7 0 -7 -2 -10 -5 -7 -6 6 -37 -17 -92 -69 -18 -18
-39 -33 -45 -33 -6 0 -8 -3 -5 -6 3 -4 -10 -22 -31 -42 -20 -19 -30 -31 -22
-26 9 5 7 1 -3 -8 -11 -10 -16 -18 -11 -18 4 0 -1 -6 -12 -14 -10 -8 -19 -19
-19 -25 0 -5 -9 -17 -20 -25 -12 -9 -15 -15 -7 -16 8 0 6 -8 -8 -22 -11 -12
-20 -30 -20 -40 0 -10 -4 -18 -9 -18 -8 0 -19 -28 -27 -69 -1 -8 -6 -17 -11
-20 -4 -3 -9 -15 -10 -26 -1 -11 -5 -31 -8 -45 -4 -14 -7 -33 -7 -43 1 -11 -4
-15 -11 -10 -7 4 -5 -2 3 -12 8 -10 10 -16 4 -12 -7 4 -11 -31 -13 -114 -2
-97 0 -119 11 -113 10 5 11 4 0 -7 -14 -15 -17 -33 -4 -25 5 3 9 -1 9 -9 0 -8
-4 -12 -9 -8 -6 3 -2 -9 6 -26 13 -23 13 -31 4 -31 -10 0 -9 -3 1 -9 8 -5 15
-20 15 -33 1 -12 8 -33 14 -45 7 -13 10 -23 6 -23 -3 0 -1 -6 5 -13 6 -8 8
-17 4 -20 -3 -4 -1 -7 5 -7 7 0 11 -3 10 -7 -1 -5 3 -18 10 -29 6 -12 8 -24 5
-28 -3 -3 -1 -6 6 -6 7 0 9 -4 6 -10 -3 -5 1 -10 10 -10 9 0 14 -4 10 -9 -3
-5 2 -16 11 -25 8 -9 13 -20 9 -25 -3 -6 6 -18 20 -27 14 -9 25 -22 25 -29 0
-7 15 -26 33 -41 17 -15 32 -32 32 -38 0 -6 7 -11 15 -11 8 -1 14 -6 13 -13
-2 -7 3 -11 10 -9 6 1 11 -4 10 -10 -3 -11 11 -18 20 -10 1 1 17 -13 35 -31
18 -18 32 -27 32 -20 0 7 7 2 16 -10 8 -12 21 -22 29 -22 7 0 15 -5 17 -10 2
-6 13 -12 25 -13 12 0 20 -4 18 -7 -2 -3 5 -12 17 -19 11 -7 17 -8 14 -2 -4 5
8 2 26 -7 18 -9 42 -18 53 -19 10 -2 22 -7 25 -12 5 -7 21 -11 63 -12 9 0 17
-4 17 -9 0 -4 8 -7 18 -5 9 1 23 -3 31 -9 12 -9 13 -8 6 4 -7 12 -6 13 6 3 23
-19 281 -11 314 8 6 4 18 5 28 4 9 -2 17 2 17 8 0 5 3 7 7 4 3 -4 13 -1 21 6
13 9 14 9 8 0 -5 -9 -2 -11 8 -7 9 3 16 10 16 15 0 4 7 6 15 3 8 -4 15 -1 15
6 0 6 4 9 8 6 5 -3 25 3 44 14 20 10 39 16 42 13 3 -4 6 2 7 13 0 10 3 13 6 7
3 -10 8 -9 20 2 8 8 19 12 25 9 6 -4 8 -2 5 3 -4 6 1 17 10 24 14 12 16 12 9
-1 -4 -8 0 -6 8 4 9 11 16 16 16 11 0 -5 7 0 15 11 8 10 15 15 15 9 0 -5 7 1
16 13 8 12 23 22 32 22 15 0 15 2 2 10 -13 8 -12 10 3 10 9 0 17 5 17 10 0 6
11 15 25 22 13 6 22 15 19 20 -3 4 2 11 10 14 9 3 14 10 11 14 -3 5 4 11 15
15 11 4 18 11 15 16 -4 5 -1 9 5 9 6 0 8 5 5 10 -3 6 1 10 10 10 9 0 13 5 10
10 -3 6 -1 10 5 10 6 0 9 4 6 8 -3 5 3 18 12 28 17 18 35 54 32 63 -1 2 3 7
10 11 6 4 12 13 13 21 2 8 6 20 10 27 5 7 11 25 13 39 3 15 10 31 16 34 6 4 8
11 5 15 -2 5 0 20 6 34 5 14 9 33 8 43 -1 9 3 17 8 17 6 0 11 5 11 11 0 5 -4
8 -8 5 -5 -3 -9 1 -9 9 0 8 4 12 8 9 4 -2 8 52 8 121 0 94 -3 124 -12 119 -9
-5 -9 -4 -1 5 14 15 7 51 -10 51 -6 0 -4 5 4 10 9 6 10 10 3 10 -6 0 -10 9 -8
20 2 11 0 20 -5 20 -5 0 -7 6 -4 14 3 8 0 17 -6 21 -9 6 -9 10 1 16 11 7 10 9
-3 9 -11 0 -15 5 -12 15 4 8 1 15 -6 15 -6 0 -9 4 -6 9 9 14 -5 42 -17 34 -5
-3 -7 -1 -3 5 3 6 2 13 -4 17 -6 4 -7 11 -4 17 4 6 -1 17 -12 25 -10 7 -19 21
-19 31 0 9 -6 16 -13 14 -8 -1 -11 2 -7 8 3 5 1 10 -4 10 -6 0 -10 3 -9 8 3
16 -15 41 -26 35 -6 -3 -8 -3 -4 2 10 11 -11 47 -23 40 -8 -6 -13 8 -10 28 0
4 -6 7 -14 7 -8 0 -15 7 -15 17 0 9 -3 14 -6 10 -8 -8 -44 25 -38 35 3 4 -1 8
-8 8 -7 0 -24 12 -37 25 -13 14 -29 25 -36 25 -7 0 -16 7 -19 16 -4 9 -13 14
-22 10 -8 -3 -13 -2 -10 2 3 4 -4 14 -16 21 -16 10 -19 10 -13 -1 4 -7 -2 -2
-13 11 -10 13 -24 21 -30 17 -6 -3 -17 1 -25 9 -9 8 -23 15 -31 15 -9 0 -16 4
-16 9 0 5 -11 8 -25 6 -14 -1 -28 2 -32 8 -4 6 -1 7 7 2 8 -5 11 -4 7 2 -4 6
-17 10 -29 9 -13 -1 -26 2 -29 6 -3 5 -22 9 -42 10 -20 1 -35 4 -32 7 2 3 -60
8 -137 9 -78 2 -138 0 -135 -5 3 -5 -3 -9 -13 -9 -10 0 -17 3 -15 6 8 12 -25
7 -36 -6z"/>
</g>
</svg>
