<?xml version="1.0" standalone="no"?>
<!DOCTYPE svg PUBLIC "-//W3C//DTD SVG 20010904//EN"
 "http://www.w3.org/TR/2001/REC-SVG-20010904/DTD/svg10.dtd">
<svg version="1.0" xmlns="http://www.w3.org/2000/svg"
 width="70.000000pt" height="70.000000pt" viewBox="0 0 70.000000 70.000000"
 preserveAspectRatio="xMidYMid meet">
<metadata>
Created by potrace 1.14, written by Peter Selinger 2001-2017
</metadata>
<g transform="translate(0.000000,70.000000) scale(0.100000,-0.100000)"
fill="#000000" stroke="none">
<path d="M606 638 c-45 -98 -140 -163 -333 -229 -105 -35 -170 -79 -193 -132
-36 -80 -7 -178 68 -231 24 -17 47 -31 52 -31 5 0 12 -3 16 -7 12 -13 109 -9
122 4 7 7 12 9 12 5 0 -16 92 56 102 79 6 13 15 24 21 24 5 0 7 7 3 15 -3 8
-1 15 4 15 11 0 21 64 23 156 2 61 6 75 30 103 28 34 77 132 77 155 0 7 3 16
7 20 4 3 8 14 9 24 1 9 4 29 7 45 8 40 -5 33 -27 -15z m-264 -398 c-3 -47 -23
-87 -49 -97 -20 -8 -80 24 -86 47 -2 9 3 26 12 38 17 22 98 63 116 58 6 -2 9
-22 7 -46z"/>
</g>
</svg>
